<?xml version="1.0" encoding="UTF-8"?>
<svg xmlns="http://www.w3.org/2000/svg" width="152" height="44" viewBox="0 0 152 44" fill="none">
  <path d="M17.7298 7.76983C18.0398 7.51983 18.3098 7.28984 18.5798 7.06984C19.8398 6.05984 21.2898 5.73984 22.8698 5.93984C24.4098 6.12984 25.6798 6.78984 26.5798 8.07984C27.2298 9.00984 27.5898 10.0498 27.7598 11.1598C28.0698 13.2498 28.0098 15.3198 27.2999 17.3398C26.7199 18.9998 25.7299 20.3398 24.0699 21.0298C22.0199 21.8698 19.9999 21.7898 18.0499 20.6598C17.9699 20.6098 17.8898 20.5598 17.7598 20.4798C17.7398 20.6198 17.7198 20.7198 17.7198 20.8198C17.7198 22.5898 17.7199 24.3598 17.7099 26.1298C17.7099 26.3798 17.7798 26.4598 18.0298 26.4598C19.0798 26.4498 20.1398 26.4498 21.1898 26.4498C21.2899 26.4498 21.3998 26.4498 21.5098 26.4498C21.5298 26.4998 21.5598 26.5298 21.5598 26.5598C21.5498 27.4598 21.5398 28.3598 21.5398 29.2598C21.5398 29.4198 21.4698 29.4898 21.3098 29.4798C21.2398 29.4798 21.1798 29.4798 21.1098 29.4798C18.0698 29.4798 15.0298 29.4798 11.9998 29.4798C11.5898 29.4798 11.5898 29.4798 11.5898 29.0698C11.5898 28.2798 11.5998 27.4998 11.5898 26.7098C11.5898 26.4898 11.6598 26.4298 11.8698 26.4298C12.3598 26.4398 12.8498 26.4398 13.3398 26.4298C13.9298 26.4298 14.0699 26.2798 14.0699 25.6998C14.0699 22.4898 14.0699 19.2798 14.0699 16.0798C14.0699 13.9098 14.0699 11.7298 14.0699 9.55983C14.0699 9.17983 14.0698 9.17984 13.6898 9.17984C13.0998 9.17984 12.4999 9.16984 11.9099 9.17984C11.7299 9.17984 11.6599 9.12984 11.6599 8.92984C11.6699 8.09984 11.6699 7.25984 11.6599 6.42984C11.6599 6.23984 11.7199 6.16983 11.9099 6.16983C13.4699 6.16983 15.0299 6.16984 16.5999 6.17984C16.6999 6.17984 16.8398 6.28983 16.8998 6.37983C17.1698 6.83983 17.4298 7.28983 17.7298 7.76983ZM17.7198 12.8298C17.7198 13.9198 17.7198 15.0098 17.7198 16.0998C17.7198 16.2298 17.7498 16.3998 17.8298 16.4998C18.4598 17.2898 19.2298 17.8898 20.2498 18.0898C21.2398 18.2798 22.2098 18.2298 23.0098 17.5298C23.5698 17.0398 23.8098 16.3698 23.9498 15.6698C24.1898 14.4398 24.1898 13.1998 24.0598 11.9598C23.9998 11.3698 23.8598 10.8098 23.5398 10.3098C23.0198 9.49983 22.2099 9.23984 21.3199 9.21984C20.2299 9.19984 19.1398 9.21983 18.0398 9.20983C17.7798 9.20983 17.7098 9.29984 17.7198 9.54984C17.7298 10.6298 17.7198 11.7298 17.7198 12.8298Z" fill="#DA5A29"></path>
  <path d="M41.35 7.67C41.75 7.16 42.14 6.67 42.52 6.18C42.71 5.94 43.37 5.77 43.63 5.91C43.67 5.93 43.7 5.99 43.71 6.04C43.72 6.12 43.72 6.21 43.72 6.3C43.72 10.14 43.72 13.98 43.72 17.82C43.72 18.27 43.7199 18.27 44.1799 18.27C44.6399 18.27 45.0999 18.28 45.5599 18.27C45.7699 18.27 45.87 18.33 45.86 18.56C45.85 19.34 45.85 20.11 45.86 20.89C45.86 21.09 45.7899 21.16 45.5899 21.15C44.5599 21.14 43.5399 21.15 42.5099 21.14C42.3799 21.14 42.22 21.06 42.11 20.96C41.62 20.53 41.1399 20.09 40.6799 19.64C40.4899 19.45 40.36 19.47 40.16 19.64C39.71 20.02 39.2499 20.4 38.7599 20.74C37.8199 21.39 36.7499 21.61 35.6199 21.57C33.9099 21.52 32.4699 20.9 31.3999 19.53C30.6599 18.58 30.25 17.47 30.08 16.3C29.79 14.36 29.82 12.42 30.41 10.53C30.97 8.76 31.94 7.31999 33.66 6.48999C34.71 5.97999 35.84 5.83 36.99 5.91C38.31 6 39.55 6.37 40.64 7.15C40.88 7.3 41.09 7.48 41.35 7.67ZM40.02 14.56C40.02 13.43 40.0199 12.3 40.0099 11.17C40.0099 11.03 39.9599 10.86 39.8699 10.76C39.2699 10.08 38.54 9.6 37.66 9.4C36.19 9.06 34.5799 9.45 34.0099 11.35C33.5599 12.85 33.54 14.38 33.82 15.89C34.11 17.46 34.94 18.16 36.55 18.24C37.61 18.29 38.68 18.26 39.74 18.27C39.98 18.27 40.02 18.16 40.02 17.95C40.02 16.82 40.02 15.69 40.02 14.56Z" fill="#DA5A29"></path>
  <path d="M0.229843 3.36985C0.219843 3.25985 0.209854 3.17985 0.209854 3.09985C0.209854 2.27985 0.229849 1.44984 0.219849 0.629845C0.219849 0.419845 0.279847 0.339844 0.499847 0.339844C3.75985 0.339844 7.01985 0.339844 10.2798 0.339844C10.4898 0.339844 10.5699 0.40985 10.5699 0.61985C10.5599 1.44985 10.5599 2.28985 10.5699 3.11985C10.5699 3.31985 10.4999 3.38984 10.2999 3.37984C9.50985 3.36984 8.72985 3.37984 7.93985 3.37984C7.35985 3.37984 7.20985 3.52985 7.20985 4.10985C7.20985 8.64985 7.20985 13.1899 7.20985 17.7299C7.20985 18.1098 7.20984 18.1098 7.58984 18.1098C8.44984 18.1098 9.31984 18.1198 10.1798 18.1098C10.4098 18.1098 10.4798 18.1798 10.4798 18.3998C10.4598 19.1998 10.4398 20.0098 10.4398 20.8098C10.4398 21.0798 10.3499 21.1398 10.0999 21.1398C6.87985 21.1298 3.65985 21.1398 0.43985 21.1398C0.38985 21.1398 0.32985 21.1598 0.29985 21.1298C0.21985 21.0698 0.0998535 20.9998 0.0998535 20.9298C0.0898535 20.0598 0.0898438 19.1898 0.0898438 18.3198C0.0898438 18.1298 0.199854 18.1098 0.349854 18.1098C1.14985 18.1098 1.93985 18.1098 2.73985 18.1098C3.30985 18.1098 3.45985 17.9598 3.45985 17.3998C3.45985 12.8498 3.45985 8.29985 3.45985 3.74985C3.45985 3.37985 3.45985 3.37984 3.06985 3.37984C2.23985 3.37984 1.39985 3.37984 0.569855 3.37984C0.449855 3.38984 0.349843 3.37985 0.229843 3.36985Z" fill="#DA5A29"></path>
  <path d="M58.2599 9.06996C58.1099 9.06996 57.9999 9.06996 57.8899 9.06996C55.7799 9.06996 53.6699 9.06996 51.5599 9.05996C51.2999 9.05996 51.1499 9.14996 51.0199 9.35996C50.5999 10.02 50.7299 10.77 51.4399 11.12C52.1099 11.45 52.8399 11.68 53.5599 11.9C54.6599 12.23 55.7799 12.49 56.7999 13.04C57.8899 13.63 58.6399 14.48 58.8199 15.74C59.0799 17.61 58.4399 19.35 56.6099 20.33C55.5199 20.92 54.3399 21.17 53.1199 21.3C51.2499 21.51 49.3899 21.38 47.5299 21.18C47.3099 21.16 47.2399 21.07 47.2399 20.86C47.2499 20.1 47.2499 19.35 47.2399 18.59C47.2299 18.31 47.3399 18.25 47.5899 18.25C49.9399 18.26 52.2899 18.25 54.6299 18.25C55.0699 18.25 55.1299 18.2 55.2299 17.77C55.3999 17.1 55.2299 16.61 54.5999 16.34C53.8599 16.02 53.0799 15.78 52.2999 15.54C51.2799 15.23 50.2399 14.99 49.3199 14.44C47.7099 13.49 47.1399 12.12 47.5699 10.3C47.9099 8.85996 48.7999 7.83996 50.0299 7.08996C51.2299 6.35996 52.5699 6.02997 53.9599 5.90997C55.2999 5.79997 56.6399 5.87996 57.9699 6.07996C58.1799 6.10996 58.2799 6.17996 58.2799 6.41996C58.2599 7.19996 58.2699 7.96996 58.2699 8.74996C58.2799 8.85996 58.2699 8.93996 58.2599 9.06996Z" fill="#DA5A29"></path>
  <path d="M62.4997 4.2799C62.9097 4.2099 63.4497 4.1499 64.1297 4.1499C64.9697 4.1499 65.5797 4.3399 65.9697 4.6999C66.3297 5.0099 66.5397 5.4899 66.5397 6.0699C66.5397 6.6599 66.3597 7.1299 66.0297 7.4699C65.5797 7.9499 64.8497 8.1899 64.0197 8.1899C63.7697 8.1899 63.5297 8.1799 63.3397 8.1299V10.7599H62.4897V4.2799H62.4997ZM63.3497 7.4499C63.5397 7.4999 63.7697 7.5199 64.0497 7.5199C65.0697 7.5199 65.6997 7.0199 65.6997 6.1199C65.6997 5.2499 65.0897 4.8299 64.1497 4.8299C63.7797 4.8299 63.4997 4.8599 63.3497 4.8999V7.4499Z" fill="#222222"></path>
  <path d="M70.0098 10.7697L69.9398 10.1797H69.9098C69.6498 10.5497 69.1398 10.8797 68.4698 10.8797C67.5198 10.8797 67.0298 10.2097 67.0298 9.52971C67.0298 8.38971 68.0398 7.76971 69.8698 7.77971V7.67971C69.8698 7.28971 69.7598 6.58971 68.7998 6.58971C68.3598 6.58971 67.8998 6.72971 67.5698 6.93971L67.3798 6.36971C67.7698 6.11971 68.3298 5.94971 68.9298 5.94971C70.3698 5.94971 70.7198 6.92971 70.7198 7.87971V9.63971C70.7198 10.0497 70.7398 10.4497 70.7998 10.7697H70.0098ZM69.8898 8.36971C68.9498 8.34971 67.8898 8.51971 67.8898 9.42971C67.8898 9.98971 68.2598 10.2497 68.6998 10.2497C69.3098 10.2497 69.6998 9.85971 69.8398 9.45971C69.8698 9.36971 69.8898 9.26971 69.8898 9.18971V8.36971Z" fill="#222222"></path>
  <path d="M72.0996 7.52996C72.0996 6.96996 72.0896 6.49996 72.0596 6.05996H72.8096L72.8396 6.98996H72.8796C73.0896 6.35996 73.6096 5.95996 74.1896 5.95996C74.2896 5.95996 74.3596 5.96996 74.4296 5.98996V6.79996C74.3396 6.77996 74.2496 6.76996 74.1396 6.76996C73.5396 6.76996 73.1096 7.22996 72.9896 7.86996C72.9696 7.98996 72.9496 8.11996 72.9496 8.26996V10.78H72.0996V7.52996Z" fill="#222222"></path>
  <path d="M76.5495 4.69971V6.04971H77.7795V6.69971H76.5495V9.23971C76.5495 9.81971 76.7195 10.1597 77.1895 10.1597C77.4095 10.1597 77.5795 10.1297 77.6895 10.0997L77.7295 10.7397C77.5595 10.8097 77.2995 10.8597 76.9695 10.8597C76.5695 10.8597 76.2495 10.7297 76.0395 10.4997C75.7995 10.2497 75.7095 9.82971 75.7095 9.26971V6.69971H74.9795V6.04971H75.7095V4.91971L76.5495 4.69971Z" fill="#222222"></path>
  <path d="M79.1699 8.56971C79.1899 9.72971 79.9299 10.2097 80.7899 10.2097C81.3999 10.2097 81.7699 10.0997 82.0999 9.96971L82.2499 10.5797C81.9499 10.7197 81.4299 10.8697 80.6799 10.8697C79.2299 10.8697 78.3599 9.90971 78.3599 8.48971C78.3599 7.06971 79.1999 5.94971 80.5699 5.94971C82.1099 5.94971 82.5199 7.29971 82.5199 8.16971C82.5199 8.34971 82.4999 8.47971 82.4899 8.56971H79.1699ZM81.6799 7.95971C81.6899 7.40971 81.4599 6.56971 80.4899 6.56971C79.6199 6.56971 79.2399 7.36971 79.1699 7.95971H81.6799Z" fill="#222222"></path>
  <path d="M83.5698 7.32994C83.5698 6.83994 83.5598 6.43994 83.5298 6.04994H84.2898L84.3398 6.82994H84.3598C84.5898 6.37994 85.1398 5.93994 85.9198 5.93994C86.5698 5.93994 87.5898 6.32994 87.5898 7.94994V10.7699H86.7298V8.04994C86.7298 7.28994 86.4498 6.65994 85.6398 6.65994C85.0698 6.65994 84.6398 7.05994 84.4898 7.53994C84.4498 7.64994 84.4298 7.78994 84.4298 7.93994V10.7799H83.5698V7.32994Z" fill="#222222"></path>
  <path d="M91.5899 10.7697L91.5199 10.1797H91.4899C91.2299 10.5497 90.7199 10.8797 90.0499 10.8797C89.0999 10.8797 88.6099 10.2097 88.6099 9.52971C88.6099 8.38971 89.6199 7.76971 91.4499 7.77971V7.67971C91.4499 7.28971 91.3399 6.58971 90.3799 6.58971C89.9399 6.58971 89.4799 6.72971 89.1499 6.93971L88.9599 6.36971C89.3499 6.11971 89.9199 5.94971 90.5099 5.94971C91.9499 5.94971 92.2999 6.92971 92.2999 7.87971V9.63971C92.2999 10.0497 92.3199 10.4497 92.3799 10.7697H91.5899ZM91.4699 8.36971C90.5299 8.34971 89.4699 8.51971 89.4699 9.42971C89.4699 9.98971 89.8399 10.2497 90.2799 10.2497C90.8899 10.2497 91.2799 9.85971 91.4199 9.45971C91.4499 9.36971 91.4699 9.26971 91.4699 9.18971V8.36971Z" fill="#222222"></path>
  <path d="M94.6296 4.72994C94.6396 5.01994 94.4296 5.25994 94.0796 5.25994C93.7796 5.25994 93.5596 5.02994 93.5596 4.72994C93.5596 4.42994 93.7796 4.18994 94.0996 4.18994C94.4296 4.18994 94.6296 4.42994 94.6296 4.72994ZM93.6796 10.7699V6.04994H94.5396V10.7699H93.6796Z" fill="#222222"></path>
  <path d="M95.9599 7.52996C95.9599 6.96996 95.9499 6.49996 95.9199 6.05996H96.6699L96.6999 6.98996H96.7399C96.9499 6.35996 97.4699 5.95996 98.0499 5.95996C98.1499 5.95996 98.2199 5.96996 98.2899 5.98996V6.79996C98.1999 6.77996 98.1099 6.76996 97.9999 6.76996C97.3999 6.76996 96.9699 7.22996 96.8499 7.86996C96.8299 7.98996 96.8099 8.11996 96.8099 8.26996V10.78H95.9599V7.52996Z" fill="#222222"></path>
  <path d="M99.5297 8.56971C99.5497 9.72971 100.29 10.2097 101.15 10.2097C101.76 10.2097 102.13 10.0997 102.46 9.96971L102.61 10.5797C102.31 10.7197 101.79 10.8697 101.04 10.8697C99.5897 10.8697 98.7197 9.90971 98.7197 8.48971C98.7197 7.06971 99.5597 5.94971 100.93 5.94971C102.47 5.94971 102.88 7.29971 102.88 8.16971C102.88 8.34971 102.86 8.47971 102.85 8.56971H99.5297ZM102.04 7.95971C102.05 7.40971 101.82 6.56971 100.85 6.56971C99.9797 6.56971 99.5997 7.36971 99.5297 7.95971H102.04Z" fill="#222222"></path>
  <path d="M103.82 9.89971C104.07 10.0697 104.52 10.2397 104.95 10.2397C105.57 10.2397 105.87 9.92971 105.87 9.53971C105.87 9.12971 105.63 8.90971 104.99 8.66971C104.14 8.36971 103.74 7.89971 103.74 7.32971C103.74 6.56971 104.35 5.94971 105.37 5.94971C105.85 5.94971 106.27 6.08971 106.53 6.23971L106.32 6.85971C106.13 6.73971 105.79 6.58971 105.36 6.58971C104.85 6.58971 104.57 6.87971 104.57 7.22971C104.57 7.61971 104.85 7.79971 105.47 8.02971C106.29 8.33971 106.71 8.74971 106.71 9.44971C106.71 10.2797 106.07 10.8597 104.95 10.8597C104.43 10.8597 103.96 10.7297 103.62 10.5397L103.82 9.89971Z" fill="#222222"></path>
  <path d="M109.86 7.59971C109.86 6.99971 109.84 6.50971 109.82 6.05971H110.59L110.63 6.86971H110.65C111 6.29971 111.56 5.94971 112.33 5.94971C113.47 5.94971 114.33 6.90971 114.33 8.34971C114.33 10.0497 113.3 10.8797 112.19 10.8797C111.57 10.8797 111.02 10.6097 110.74 10.1397H110.72V12.6997H109.87V7.59971H109.86ZM110.71 8.84971C110.71 8.97971 110.73 9.08971 110.75 9.19971C110.91 9.78971 111.42 10.1997 112.04 10.1997C112.95 10.1997 113.47 9.45971 113.47 8.37971C113.47 7.42971 112.97 6.62971 112.07 6.62971C111.49 6.62971 110.94 7.04971 110.77 7.68971C110.74 7.79971 110.71 7.91971 110.71 8.03971V8.84971Z" fill="#222222"></path>
  <path d="M119.67 8.36994C119.67 10.1099 118.46 10.8699 117.32 10.8699C116.04 10.8699 115.06 9.92994 115.06 8.43994C115.06 6.85994 116.09 5.93994 117.4 5.93994C118.76 5.94994 119.67 6.92994 119.67 8.36994ZM115.93 8.41994C115.93 9.44994 116.52 10.2299 117.36 10.2299C118.18 10.2299 118.79 9.45994 118.79 8.39994C118.79 7.59994 118.39 6.58994 117.38 6.58994C116.37 6.58994 115.93 7.52994 115.93 8.41994Z" fill="#222222"></path>
  <path d="M124.7 9.4898C124.7 9.9798 124.71 10.4098 124.74 10.7798H123.98L123.93 9.9998H123.91C123.69 10.3798 123.19 10.8798 122.35 10.8798C121.61 10.8798 120.72 10.4698 120.72 8.8098V6.0498H121.58V8.65981C121.58 9.55981 121.85 10.1598 122.63 10.1598C123.2 10.1598 123.6 9.7598 123.76 9.3798C123.81 9.2498 123.84 9.0998 123.84 8.9398V6.0498H124.7V9.4898Z" fill="#222222"></path>
  <path d="M126.13 7.52996C126.13 6.96996 126.12 6.49996 126.09 6.05996H126.84L126.87 6.98996H126.91C127.12 6.35996 127.64 5.95996 128.22 5.95996C128.32 5.95996 128.39 5.96996 128.46 5.98996V6.79996C128.37 6.77996 128.28 6.76996 128.17 6.76996C127.57 6.76996 127.14 7.22996 127.02 7.86996C127 7.98996 126.98 8.11996 126.98 8.26996V10.78H126.13V7.52996Z" fill="#222222"></path>
  <path d="M62.4697 12.2998H63.3297V19.2198H62.4697V12.2998Z" fill="#222222"></path>
  <path d="M67.3799 19.2199L67.3099 18.6299H67.2799C67.0199 18.9999 66.5099 19.3299 65.8399 19.3299C64.8899 19.3299 64.3999 18.6599 64.3999 17.9799C64.3999 16.8399 65.4099 16.2199 67.2399 16.2299V16.1299C67.2399 15.7399 67.1299 15.0399 66.1699 15.0399C65.7299 15.0399 65.2699 15.1799 64.9399 15.3899L64.7499 14.8199C65.1399 14.5699 65.6999 14.3999 66.2999 14.3999C67.7399 14.3999 68.0899 15.3799 68.0899 16.3299V18.0899C68.0899 18.4999 68.1099 18.8999 68.1699 19.2199H67.3799ZM67.2599 16.8099C66.3199 16.7899 65.2599 16.9599 65.2599 17.8699C65.2599 18.4299 65.6299 18.6899 66.0699 18.6899C66.6799 18.6899 67.0699 18.2999 67.2099 17.8999C67.2399 17.8099 67.2599 17.7099 67.2599 17.6299V16.8099Z" fill="#222222"></path>
  <path d="M70.3799 20.5801C70.7699 20.5501 71.1099 20.4401 71.3199 20.2201C71.5499 19.9501 71.6399 19.5801 71.6399 18.4501V14.5001H72.4999V18.7801C72.4999 19.7001 72.3499 20.2901 71.9299 20.7201C71.5499 21.1001 70.9299 21.2601 70.4699 21.2601L70.3799 20.5801ZM72.5999 13.1801C72.6099 13.4601 72.4099 13.7101 72.0599 13.7101C71.7399 13.7101 71.5299 13.4701 71.5299 13.1801C71.5299 12.8801 71.7499 12.6401 72.0799 12.6401C72.3899 12.6401 72.5999 12.8801 72.5999 13.1801Z" fill="#222222"></path>
  <path d="M77.8496 17.93C77.8496 18.42 77.8596 18.85 77.8896 19.22H77.1296L77.0796 18.45H77.0596C76.8396 18.83 76.3396 19.33 75.4996 19.33C74.7596 19.33 73.8696 18.92 73.8696 17.26V14.5H74.7296V17.11C74.7296 18.01 74.9996 18.61 75.7796 18.61C76.3496 18.61 76.7496 18.21 76.9096 17.83C76.9596 17.7 76.9896 17.55 76.9896 17.39V14.5H77.8496V17.93Z" fill="#222222"></path>
  <path d="M79.16 18.3401C79.41 18.5101 79.8599 18.6801 80.2899 18.6801C80.9099 18.6801 81.21 18.3701 81.21 17.9801C81.21 17.5701 80.97 17.3501 80.33 17.1101C79.48 16.8101 79.08 16.3401 79.08 15.7701C79.08 15.0101 79.69 14.3901 80.71 14.3901C81.19 14.3901 81.6099 14.5301 81.8699 14.6801L81.66 15.3001C81.47 15.1801 81.13 15.0301 80.7 15.0301C80.19 15.0301 79.91 15.3201 79.91 15.6701C79.91 16.0601 80.19 16.2401 80.81 16.4701C81.63 16.7801 82.05 17.1901 82.05 17.8901C82.05 18.7201 81.4099 19.3001 80.2899 19.3001C79.7699 19.3001 79.3 19.1701 78.96 18.9801L79.16 18.3401Z" fill="#222222"></path>
  <path d="M84.1696 13.1499V14.4999H85.3996V15.1499H84.1696V17.6899C84.1696 18.2699 84.3396 18.6099 84.8096 18.6099C85.0296 18.6099 85.1996 18.5799 85.3096 18.5499L85.3496 19.1899C85.1796 19.2599 84.9196 19.3099 84.5896 19.3099C84.1896 19.3099 83.8696 19.1799 83.6596 18.9499C83.4196 18.6999 83.3296 18.2799 83.3296 17.7199V15.1499H82.5996V14.4999H83.3296V13.3699L84.1696 13.1499Z" fill="#222222"></path>
  <path d="M87.3097 13.1801C87.3197 13.4701 87.1097 13.7101 86.7597 13.7101C86.4597 13.7101 86.2397 13.4801 86.2397 13.1801C86.2397 12.8801 86.4597 12.6401 86.7797 12.6401C87.1097 12.6401 87.3097 12.8801 87.3097 13.1801ZM86.3597 19.2201V14.5001H87.2197V19.2201H86.3597Z" fill="#222222"></path>
  <path d="M91.9998 19.0399C91.7798 19.1599 91.2798 19.3099 90.6498 19.3099C89.2298 19.3099 88.2998 18.3499 88.2998 16.8999C88.2998 15.4499 89.2898 14.3999 90.8298 14.3999C91.3398 14.3999 91.7798 14.5299 92.0198 14.6399L91.8298 15.2999C91.6298 15.1799 91.2998 15.0799 90.8398 15.0799C89.7598 15.0799 89.1698 15.8799 89.1698 16.8599C89.1698 17.9499 89.8698 18.6199 90.8098 18.6199C91.2998 18.6199 91.6198 18.4899 91.8598 18.3899L91.9998 19.0399Z" fill="#222222"></path>
  <path d="M93.4296 17.0199C93.4496 18.1799 94.1896 18.6599 95.0496 18.6599C95.6596 18.6599 96.0296 18.5499 96.3596 18.4199L96.5096 19.0299C96.2096 19.1699 95.6896 19.3199 94.9396 19.3199C93.4896 19.3199 92.6196 18.3599 92.6196 16.9399C92.6196 15.5199 93.4596 14.3999 94.8296 14.3999C96.3696 14.3999 96.7796 15.7499 96.7796 16.6199C96.7796 16.7999 96.7596 16.9299 96.7496 17.0199H93.4296ZM95.9396 16.3999C95.9496 15.8499 95.7196 15.0099 94.7496 15.0099C93.8796 15.0099 93.4996 15.8099 93.4296 16.3999H95.9396Z" fill="#222222"></path>
  <path d="M99.8999 15.9699C99.8999 15.4099 99.8899 14.9399 99.8599 14.4999H100.61L100.64 15.4299H100.68C100.89 14.7999 101.41 14.3999 101.99 14.3999C102.09 14.3999 102.16 14.4099 102.23 14.4299V15.2399C102.14 15.2199 102.05 15.2099 101.94 15.2099C101.34 15.2099 100.91 15.6699 100.79 16.3099C100.77 16.4299 100.75 16.5599 100.75 16.7099V19.2199H99.8999V15.9699Z" fill="#222222"></path>
  <path d="M103.46 17.0199C103.48 18.1799 104.22 18.6599 105.08 18.6599C105.69 18.6599 106.06 18.5499 106.39 18.4199L106.54 19.0299C106.24 19.1699 105.72 19.3199 104.97 19.3199C103.52 19.3199 102.65 18.3599 102.65 16.9399C102.65 15.5199 103.49 14.3999 104.86 14.3999C106.4 14.3999 106.81 15.7499 106.81 16.6199C106.81 16.7999 106.79 16.9299 106.78 17.0199H103.46ZM105.98 16.3999C105.99 15.8499 105.76 15.0099 104.79 15.0099C103.92 15.0099 103.54 15.8099 103.47 16.3999H105.98Z" fill="#222222"></path>
  <path d="M107.87 16.0401C107.87 15.4401 107.85 14.9501 107.83 14.5001H108.6L108.64 15.3101H108.66C109.01 14.7401 109.57 14.3901 110.34 14.3901C111.48 14.3901 112.34 15.3501 112.34 16.7901C112.34 18.4901 111.31 19.3201 110.2 19.3201C109.58 19.3201 109.03 19.0501 108.75 18.5801H108.73V21.1401H107.88V16.0401H107.87ZM108.72 17.3001C108.72 17.4301 108.74 17.5401 108.76 17.6501C108.92 18.2401 109.43 18.6501 110.05 18.6501C110.96 18.6501 111.48 17.9101 111.48 16.8301C111.48 15.8801 110.98 15.0801 110.08 15.0801C109.5 15.0801 108.95 15.5001 108.78 16.1401C108.75 16.2501 108.72 16.3701 108.72 16.4901V17.3001Z" fill="#222222"></path>
  <path d="M113.42 15.9699C113.42 15.4099 113.41 14.9399 113.38 14.4999H114.13L114.16 15.4299H114.2C114.41 14.7999 114.93 14.3999 115.51 14.3999C115.61 14.3999 115.68 14.4099 115.75 14.4299V15.2399C115.66 15.2199 115.57 15.2099 115.46 15.2099C114.86 15.2099 114.43 15.6699 114.31 16.3099C114.29 16.4299 114.27 16.5599 114.27 16.7099V19.2199H113.42V15.9699Z" fill="#222222"></path>
  <path d="M120.77 16.8201C120.77 18.5601 119.56 19.3201 118.42 19.3201C117.14 19.3201 116.16 18.3801 116.16 16.8901C116.16 15.3101 117.19 14.3901 118.5 14.3901C119.86 14.4001 120.77 15.3801 120.77 16.8201ZM117.03 16.8701C117.03 17.9001 117.62 18.6801 118.46 18.6801C119.28 18.6801 119.89 17.9101 119.89 16.8501C119.89 16.0501 119.49 15.0401 118.48 15.0401C117.47 15.0401 117.03 15.9701 117.03 16.8701Z" fill="#222222"></path>
  <path d="M125.93 12.2998V17.9998C125.93 18.4198 125.94 18.8998 125.97 19.2198H125.2L125.16 18.3998H125.14C124.88 18.9298 124.3 19.3298 123.53 19.3298C122.39 19.3298 121.51 18.3698 121.51 16.9298C121.5 15.3598 122.47 14.3998 123.62 14.3998C124.34 14.3998 124.83 14.7398 125.04 15.1198H125.06V12.2998H125.93ZM125.07 16.4198C125.07 16.3098 125.06 16.1698 125.03 16.0598C124.9 15.5098 124.44 15.0698 123.79 15.0698C122.9 15.0698 122.38 15.8498 122.38 16.8898C122.38 17.8498 122.85 18.6298 123.77 18.6298C124.34 18.6298 124.87 18.2498 125.03 17.6098C125.06 17.4898 125.07 17.3798 125.07 17.2398V16.4198Z" fill="#222222"></path>
  <path d="M131.3 17.93C131.3 18.42 131.31 18.85 131.34 19.22H130.58L130.53 18.45H130.51C130.29 18.83 129.79 19.33 128.95 19.33C128.21 19.33 127.32 18.92 127.32 17.26V14.5H128.18V17.11C128.18 18.01 128.45 18.61 129.23 18.61C129.8 18.61 130.2 18.21 130.36 17.83C130.41 17.7 130.44 17.55 130.44 17.39V14.5H131.3V17.93Z" fill="#222222"></path>
  <path d="M136.09 19.0399C135.87 19.1599 135.37 19.3099 134.74 19.3099C133.32 19.3099 132.39 18.3499 132.39 16.8999C132.39 15.4499 133.38 14.3999 134.92 14.3999C135.43 14.3999 135.87 14.5299 136.11 14.6399L135.92 15.2999C135.72 15.1799 135.39 15.0799 134.93 15.0799C133.85 15.0799 133.26 15.8799 133.26 16.8599C133.26 17.9499 133.96 18.6199 134.9 18.6199C135.39 18.6199 135.71 18.4899 135.95 18.3899L136.09 19.0399Z" fill="#222222"></path>
  <path d="M138.25 13.1499V14.4999H139.48V15.1499H138.25V17.6899C138.25 18.2699 138.42 18.6099 138.89 18.6099C139.11 18.6099 139.28 18.5799 139.39 18.5499L139.43 19.1899C139.26 19.2599 139 19.3099 138.67 19.3099C138.27 19.3099 137.95 19.1799 137.74 18.9499C137.5 18.6999 137.41 18.2799 137.41 17.7199V15.1499H136.68V14.4999H137.41V13.3699L138.25 13.1499Z" fill="#222222"></path>
  <path d="M141.4 13.1801C141.41 13.4701 141.2 13.7101 140.85 13.7101C140.55 13.7101 140.33 13.4801 140.33 13.1801C140.33 12.8801 140.55 12.6401 140.87 12.6401C141.19 12.6401 141.4 12.8801 141.4 13.1801ZM140.44 19.2201V14.5001H141.3V19.2201H140.44Z" fill="#222222"></path>
  <path d="M143.06 14.5L143.99 17.15C144.15 17.58 144.27 17.97 144.37 18.36H144.4C144.51 17.97 144.64 17.58 144.8 17.15L145.72 14.5H146.62L144.77 19.22H143.95L142.16 14.5H143.06Z" fill="#222222"></path>
  <path d="M147.789 17.0199C147.809 18.1799 148.549 18.6599 149.409 18.6599C150.019 18.6599 150.389 18.5499 150.719 18.4199L150.869 19.0299C150.569 19.1699 150.049 19.3199 149.299 19.3199C147.849 19.3199 146.979 18.3599 146.979 16.9399C146.979 15.5199 147.819 14.3999 149.189 14.3999C150.729 14.3999 151.139 15.7499 151.139 16.6199C151.139 16.7999 151.119 16.9299 151.109 17.0199H147.789ZM150.309 16.3999C150.319 15.8499 150.089 15.0099 149.119 15.0099C148.249 15.0099 147.869 15.8099 147.799 16.3999H150.309Z" fill="#222222"></path>
  <path d="M24.4797 26.1198C24.7497 26.0598 25.1397 26.0298 25.5197 26.0298C26.0997 26.0298 26.4697 26.1398 26.7297 26.3698C26.9397 26.5598 27.0597 26.8398 27.0597 27.1598C27.0597 27.7098 26.7097 28.0798 26.2697 28.2298V28.2498C26.5897 28.3598 26.7797 28.6598 26.8797 29.0898C27.0197 29.6698 27.1197 30.0798 27.1997 30.2398H26.6397C26.5697 30.1198 26.4797 29.7598 26.3597 29.2398C26.2397 28.6598 26.0097 28.4498 25.5197 28.4298H25.0097V30.2398H24.4697V26.1198H24.4797ZM25.0197 28.0198H25.5697C26.1497 28.0198 26.5097 27.6998 26.5097 27.2298C26.5097 26.6898 26.1197 26.4498 25.5497 26.4498C25.2897 26.4498 25.0997 26.4698 25.0197 26.4998V28.0198Z" fill="#DA5A29"></path>
  <path d="M29.9798 28.2801H28.3598V29.7901H30.1698V30.2401H27.8198V26.0601H30.0798V26.5101H28.3598V27.8301H29.9798V28.2801Z" fill="#DA5A29"></path>
  <path d="M30.8696 26.1098C31.1296 26.0698 31.4696 26.0298 31.9096 26.0298C32.4396 26.0298 32.8296 26.1498 33.0796 26.3798C33.3096 26.5798 33.4496 26.8798 33.4496 27.2498C33.4496 27.6298 33.3396 27.9298 33.1296 28.1398C32.8396 28.4398 32.3796 28.5998 31.8496 28.5998C31.6896 28.5998 31.5396 28.5898 31.4196 28.5598V30.2298H30.8796V26.1098H30.8696ZM31.4096 28.1298C31.5296 28.1598 31.6796 28.1698 31.8596 28.1698C32.5096 28.1698 32.9096 27.8498 32.9096 27.2798C32.9096 26.7298 32.5196 26.4598 31.9196 26.4598C31.6796 26.4598 31.4996 26.4798 31.4096 26.4998V28.1298Z" fill="#DA5A29"></path>
  <path d="M34.7099 26.0601V28.5301C34.7099 29.4701 35.1299 29.8601 35.6799 29.8601C36.2999 29.8601 36.6999 29.4501 36.6999 28.5301V26.0601H37.2499V28.5001C37.2499 29.7801 36.5699 30.3101 35.6699 30.3101C34.8099 30.3101 34.1699 29.8201 34.1699 28.5201V26.0601H34.7099Z" fill="#DA5A29"></path>
  <path d="M38.1899 26.1198C38.4299 26.0698 38.7999 26.0298 39.1799 26.0298C39.7199 26.0298 40.0699 26.1198 40.3299 26.3298C40.5499 26.4898 40.6799 26.7398 40.6799 27.0698C40.6799 27.4698 40.4099 27.8298 39.9699 27.9898V27.9998C40.3699 28.0998 40.8299 28.4298 40.8299 29.0498C40.8299 29.4098 40.6899 29.6798 40.4799 29.8898C40.1899 30.1598 39.7199 30.2798 39.0299 30.2798C38.6599 30.2798 38.3699 30.2598 38.1899 30.2298V26.1198ZM38.7299 27.8298H39.2199C39.7899 27.8298 40.1299 27.5298 40.1299 27.1298C40.1299 26.6398 39.7599 26.4498 39.2099 26.4498C38.9599 26.4498 38.8199 26.4698 38.7299 26.4898V27.8298ZM38.7299 29.8298C38.8399 29.8498 38.9899 29.8498 39.1799 29.8498C39.7399 29.8498 40.2499 29.6498 40.2499 29.0398C40.2499 28.4698 39.7599 28.2298 39.1699 28.2298H38.7199V29.8298H38.7299Z" fill="#DA5A29"></path>
  <path d="M41.5498 26.0601H42.0898V29.7901H43.8798V30.2401H41.5498V26.0601Z" fill="#DA5A29"></path>
  <path d="M45.0195 26.0601V30.2401H44.4795V26.0601H45.0195Z" fill="#DA5A29"></path>
  <path d="M49.4097 30.85C48.8497 30.7 48.2897 30.53 47.8097 30.37C47.7197 30.34 47.6397 30.31 47.5597 30.31C46.5697 30.27 45.7197 29.54 45.7197 28.2C45.7197 26.86 46.5397 26 47.6697 26C48.8097 26 49.5397 26.88 49.5397 28.11C49.5397 29.18 49.0397 29.87 48.3497 30.11V30.13C48.7697 30.24 49.2197 30.33 49.5697 30.4L49.4097 30.85ZM48.9597 28.13C48.9597 27.29 48.5297 26.43 47.6397 26.43C46.7297 26.43 46.2797 27.27 46.2897 28.18C46.2797 29.07 46.7697 29.87 47.6197 29.87C48.4797 29.87 48.9597 29.09 48.9597 28.13Z" fill="#DA5A29"></path>
  <path d="M50.7797 26.0601V28.5301C50.7797 29.4701 51.1997 29.8601 51.7497 29.8601C52.3697 29.8601 52.7697 29.4501 52.7697 28.5301V26.0601H53.3197V28.5001C53.3197 29.7801 52.6397 30.3101 51.7397 30.3101C50.8797 30.3101 50.2397 29.8201 50.2397 28.5201V26.0601H50.7797Z" fill="#DA5A29"></path>
  <path d="M56.4198 28.2801H54.7998V29.7901H56.6098V30.2401H54.2598V26.0601H56.5198V26.5101H54.7998V27.8301H56.4198V28.2801Z" fill="#DA5A29"></path>
  <path d="M24.4795 32.5299C24.8095 32.4799 25.1995 32.4399 25.6295 32.4399C26.4095 32.4399 26.9595 32.6199 27.3195 32.9599C27.6895 33.2999 27.9095 33.7799 27.9095 34.4599C27.9095 35.1399 27.6995 35.6999 27.3095 36.0799C26.9195 36.4699 26.2695 36.6799 25.4595 36.6799C25.0795 36.6799 24.7495 36.6599 24.4795 36.6299V32.5299ZM25.0195 36.2199C25.1595 36.2399 25.3495 36.2499 25.5695 36.2499C26.7195 36.2499 27.3495 35.5999 27.3495 34.4799C27.3595 33.4899 26.7995 32.8699 25.6595 32.8699C25.3795 32.8699 25.1695 32.8899 25.0295 32.9299V36.2199H25.0195Z" fill="#DA5A29"></path>
  <path d="M30.7796 34.6902H29.1596V36.2002H30.9696V36.6502H28.6196V32.4702H30.8796V32.9202H29.1596V34.2402H30.7796V34.6902Z" fill="#DA5A29"></path>
  <path d="M35.1896 34.8202C35.1596 34.2402 35.1196 33.5402 35.1296 33.0202H35.1096C34.9696 33.5102 34.7896 34.0302 34.5796 34.6102L33.8396 36.6402H33.4296L32.7496 34.6502C32.5496 34.0602 32.3796 33.5202 32.2696 33.0302H32.2596C32.2496 33.5502 32.2196 34.2502 32.1796 34.8802L32.0696 36.6702H31.5596L31.8496 32.4902H32.5396L33.2496 34.5102C33.4196 35.0202 33.5696 35.4802 33.6696 35.9202H33.6896C33.7996 35.5002 33.9396 35.0402 34.1296 34.5102L34.8696 32.4902H35.5596L35.8196 36.6702H35.2896L35.1896 34.8202Z" fill="#DA5A29"></path>
  <path d="M40.2297 34.5199C40.2297 35.9599 39.3597 36.7199 38.2897 36.7199C37.1897 36.7199 36.4097 35.8599 36.4097 34.5999C36.4097 33.2699 37.2297 32.3999 38.3497 32.3999C39.4897 32.3999 40.2297 33.2799 40.2297 34.5199ZM36.9797 34.5899C36.9797 35.4799 37.4597 36.2799 38.3097 36.2799C39.1697 36.2799 39.6497 35.4899 39.6497 34.5399C39.6497 33.7099 39.2197 32.8399 38.3197 32.8399C37.4297 32.8399 36.9797 33.6699 36.9797 34.5899Z" fill="#DA5A29"></path>
  <path d="M43.8497 36.5201C43.6497 36.6201 43.2497 36.7202 42.7497 36.7202C41.5697 36.7202 40.6797 35.9802 40.6797 34.6102C40.6797 33.3002 41.5697 32.4102 42.8597 32.4102C43.3797 32.4102 43.7097 32.5202 43.8497 32.6002L43.7197 33.0402C43.5197 32.9402 43.2197 32.8702 42.8797 32.8702C41.8997 32.8702 41.2497 33.5001 41.2497 34.5901C41.2497 35.6101 41.8397 36.2701 42.8597 36.2701C43.1897 36.2701 43.5197 36.2002 43.7397 36.1002L43.8497 36.5201Z" fill="#DA5A29"></path>
  <path d="M44.5295 32.5299C44.7995 32.4699 45.1895 32.4399 45.5695 32.4399C46.1495 32.4399 46.5195 32.5499 46.7795 32.7799C46.9895 32.9699 47.1095 33.2499 47.1095 33.5699C47.1095 34.1199 46.7595 34.4899 46.3195 34.6399V34.6599C46.6395 34.7699 46.8295 35.0699 46.9295 35.4999C47.0695 36.0799 47.1695 36.4899 47.2495 36.6499H46.6895C46.6195 36.5299 46.5295 36.1699 46.4095 35.6499C46.2895 35.0699 46.0595 34.8599 45.5695 34.8399H45.0595V36.6499H44.5195V32.5299H44.5295ZM45.0695 34.4299H45.6195C46.1995 34.4299 46.5595 34.1099 46.5595 33.6399C46.5595 33.0999 46.1695 32.8599 45.5995 32.8599C45.3395 32.8599 45.1495 32.8799 45.0695 32.9099V34.4299Z" fill="#DA5A29"></path>
  <path d="M48.5798 35.3402L48.1498 36.6502H47.5898L49.0098 32.4702H49.6599L51.0898 36.6502H50.5098L50.0598 35.3402H48.5798ZM49.9498 34.9202L49.5398 33.7202C49.4498 33.4502 49.3799 33.2002 49.3199 32.9602H49.3098C49.2498 33.2102 49.1799 33.4602 49.0999 33.7202L48.6898 34.9302H49.9498V34.9202Z" fill="#DA5A29"></path>
  <path d="M52.0097 32.9302H50.7397V32.4702H53.8297V32.9302H52.5497V36.6502H51.9997V32.9302H52.0097Z" fill="#DA5A29"></path>
  <path d="M54.8398 32.4702V36.6502H54.2998V32.4702H54.8398Z" fill="#DA5A29"></path>
  <path d="M59.2296 37.2699C58.6696 37.1199 58.1096 36.9499 57.6296 36.7899C57.5396 36.7599 57.4596 36.7299 57.3796 36.7299C56.3896 36.6899 55.5396 35.9599 55.5396 34.6199C55.5396 33.2799 56.3596 32.4199 57.4896 32.4199C58.6196 32.4199 59.3596 33.2999 59.3596 34.5299C59.3596 35.5999 58.8596 36.2899 58.1696 36.5299V36.5499C58.5896 36.6599 59.0396 36.7499 59.3896 36.8199L59.2296 37.2699ZM58.7896 34.5399C58.7896 33.6999 58.3596 32.8399 57.4696 32.8399C56.5596 32.8399 56.1096 33.6799 56.1196 34.5899C56.1096 35.4799 56.5996 36.2799 57.4496 36.2799C58.2996 36.2799 58.7896 35.4999 58.7896 34.5399Z" fill="#DA5A29"></path>
  <path d="M60.5996 32.4702V34.9402C60.5996 35.8802 61.0196 36.2702 61.5696 36.2702C62.1896 36.2702 62.5896 35.8602 62.5896 34.9402V32.4702H63.1396V34.9102C63.1396 36.1902 62.4596 36.7202 61.5596 36.7202C60.6996 36.7202 60.0596 36.2302 60.0596 34.9302V32.4702H60.5996Z" fill="#DA5A29"></path>
  <path d="M66.2396 34.6902H64.6196V36.2002H66.4296V36.6502H64.0796V32.4702H66.3396V32.9202H64.6196V34.2402H66.2396V34.6902Z" fill="#DA5A29"></path>
  <path d="M24.4795 38.9401C24.8095 38.8901 25.1995 38.8501 25.6295 38.8501C26.4095 38.8501 26.9595 39.0301 27.3195 39.3701C27.6895 39.7101 27.9095 40.1901 27.9095 40.8701C27.9095 41.5501 27.6995 42.1101 27.3095 42.4901C26.9195 42.8801 26.2695 43.0901 25.4595 43.0901C25.0795 43.0901 24.7495 43.0701 24.4795 43.0401V38.9401ZM25.0195 42.6401C25.1595 42.6601 25.3495 42.6701 25.5695 42.6701C26.7195 42.6701 27.3495 42.0201 27.3495 40.9001C27.3595 39.9101 26.7995 39.2901 25.6595 39.2901C25.3795 39.2901 25.1695 39.3101 25.0295 39.3501V42.6401H25.0195Z" fill="#DA5A29"></path>
  <path d="M29.1499 38.8799V41.3499C29.1499 42.2899 29.5699 42.6799 30.1199 42.6799C30.7399 42.6799 31.1399 42.2699 31.1399 41.3499V38.8799H31.6899V41.3199C31.6899 42.5999 31.0099 43.1299 30.1099 43.1299C29.2499 43.1299 28.6099 42.6399 28.6099 41.3399V38.8799H29.1499Z" fill="#DA5A29"></path>
  <path d="M36.8599 42.9298C36.6599 43.0298 36.2599 43.1298 35.7599 43.1298C34.5799 43.1298 33.6899 42.3898 33.6899 41.0198C33.6899 39.7098 34.5799 38.8198 35.8699 38.8198C36.3899 38.8198 36.7199 38.9298 36.8599 39.0098L36.7299 39.4498C36.5299 39.3498 36.2299 39.2798 35.8899 39.2798C34.9099 39.2798 34.2599 39.9098 34.2599 40.9998C34.2599 42.0198 34.8499 42.6798 35.8699 42.6798C36.1999 42.6798 36.5299 42.6098 36.7499 42.5098L36.8599 42.9298Z" fill="#DA5A29"></path>
  <path d="M40.9797 40.9301C40.9797 42.3701 40.1097 43.1301 39.0397 43.1301C37.9397 43.1301 37.1597 42.2701 37.1597 41.0101C37.1597 39.6801 37.9797 38.8101 39.0997 38.8101C40.2497 38.8201 40.9797 39.6901 40.9797 40.9301ZM37.7397 41.0001C37.7397 41.8901 38.2197 42.6901 39.0697 42.6901C39.9297 42.6901 40.4097 41.9001 40.4097 40.9501C40.4097 40.1201 39.9797 39.2501 39.0797 39.2501C38.1897 39.2601 37.7397 40.0801 37.7397 41.0001Z" fill="#DA5A29"></path>
  <path d="M41.6899 43.0699V38.8899H42.2799L43.6199 40.9999C43.9299 41.4899 44.1699 41.9299 44.3699 42.3599L44.3799 42.3499C44.3299 41.7899 44.3199 41.2799 44.3199 40.6299V38.8799H44.8299V43.0599H44.2799L42.9499 40.9399C42.6599 40.4699 42.3799 39.9999 42.1699 39.5399L42.1499 39.5499C42.1799 40.0799 42.1899 40.5799 42.1899 41.2699V43.0599H41.6899V43.0699Z" fill="#DA5A29"></path>
  <path d="M48.9498 42.8799C48.7098 42.9699 48.2298 43.1098 47.6698 43.1098C47.0398 43.1098 46.5198 42.9498 46.1098 42.5598C45.7498 42.2098 45.5298 41.6498 45.5298 40.9998C45.5398 39.7498 46.3898 38.8398 47.7898 38.8398C48.2698 38.8398 48.6498 38.9498 48.8298 39.0298L48.6998 39.4698C48.4798 39.3698 48.1998 39.2898 47.7798 39.2898C46.7598 39.2898 46.0998 39.9198 46.0998 40.9698C46.0998 42.0298 46.7398 42.6599 47.7098 42.6599C48.0598 42.6599 48.3098 42.6099 48.4298 42.5499V41.2999H47.5798V40.8699H48.9598V42.8799H48.9498Z" fill="#DA5A29"></path>
  <path d="M53.3498 40.9301C53.3498 42.3701 52.4798 43.1301 51.4098 43.1301C50.3098 43.1301 49.5298 42.2701 49.5298 41.0101C49.5298 39.6801 50.3498 38.8101 51.4698 38.8101C52.6098 38.8201 53.3498 39.6901 53.3498 40.9301ZM50.1098 41.0001C50.1098 41.8901 50.5898 42.6901 51.4398 42.6901C52.2998 42.6901 52.7798 41.9001 52.7798 40.9501C52.7798 40.1201 52.3498 39.2501 51.4498 39.2501C50.5498 39.2601 50.1098 40.0801 50.1098 41.0001Z" fill="#DA5A29"></path>
</svg>
